<svg xmlns="http://www.w3.org/2000/svg" viewBox="0 0 204.06 21.72">
  <defs>
    <style>
      .cls-1 {
        fill: #fff;
      }
    </style>
  </defs>
  <path id="Path_2" data-name="Path 2" class="cls-1" d="M-101.205,0h13.89V-1.44h-12.33V-21h-1.56Zm25.77,0h1.62l2.67-5.88h12.39L-56.085,0h1.71l-9.78-21.15h-1.5Zm4.95-7.29,5.55-12.15,5.52,12.15ZM-33.405.33c5.1,0,8.61-3.21,8.61-9.24V-21h-1.56V-8.73c0,5.07-2.73,7.65-6.99,7.65-4.44,0-7.11-2.85-7.11-7.8V-21h-1.56V-8.73C-42.015-2.85-38.445.33-33.405.33ZM-9.885,0h1.5V-18.66L6.4,0h1.17V-21h-1.5V-2.73L-8.415-21h-1.47Zm42.21.36a11.075,11.075,0,0,0,8.34-3.66l-1.05-1.02c-2.13,2.1-4.2,3.27-7.23,3.27-5.01,0-8.88-4.14-8.88-9.45v-.06c0-5.28,3.81-9.39,8.85-9.39a9.634,9.634,0,0,1,7.08,3.09L40.545-18a11.076,11.076,0,0,0-8.16-3.36,10.555,10.555,0,0,0-10.5,10.86v.06C21.885-4.41,26.325.36,32.325.36ZM53.955,0h1.56V-9.84h13.44V0h1.56V-21h-1.56v9.72H55.515V-21h-1.56Zm31.8,0h1.56V-8.7h6.87l6.69,8.7h1.98l-6.93-8.97c3.54-.48,6.15-2.49,6.15-6v-.06a5.537,5.537,0,0,0-1.59-3.9A8.272,8.272,0,0,0,94.575-21h-8.82Zm1.56-10.11v-9.45h7.17c3.81,0,6.03,1.77,6.03,4.59v.06c0,3.03-2.61,4.8-6.12,4.8Z" transform="translate(101.205 21.36)"/>
</svg>
